<?xml version="1.0" encoding="utf-8"?>
<!-- Generator: Adobe Illustrator 16.0.0, SVG Export Plug-In . SVG Version: 6.00 Build 0)  -->
<svg version="1.2" baseProfile="tiny" id="Layer_1" xmlns="http://www.w3.org/2000/svg" xmlns:xlink="http://www.w3.org/1999/xlink"
	 x="0px" y="0px" width="152.443px" height="52.649px" viewBox="0 0 152.443 52.649" xml:space="preserve">
<g>
	<g>
		<path fill="#6D6E71" d="M0,4.302V0.137h1.181v4.029c0,1.492,0.556,2.09,1.831,2.09c1.208,0,1.75-0.707,1.75-1.968V0.137h1.085
			v4.057c0,1.857-0.922,3.039-2.875,3.039C0.922,7.232,0,6.079,0,4.302"/>
		<path fill="#6D6E71" d="M8.29,0.136H9.47l3.08,4.219c0.394,0.557,0.706,1.153,0.719,1.153h0.027c0,0-0.054-0.542-0.054-1.072
			V0.136H14.3V7.11h-1.058L9.972,2.632C9.646,2.157,9.348,1.602,9.348,1.602H9.334c0,0,0.041,0.461,0.041,0.896V7.11H8.29V0.136z"/>
	</g>
	<rect x="16.877" y="0.137" fill="#6D6E71" width="1.167" height="6.974"/>
	<g>
		<path fill="#6D6E71" d="M19.808,0.136h1.235l1.764,4.572c0.204,0.515,0.407,1.18,0.407,1.194h0.026
			c0-0.014,0.204-0.665,0.408-1.194l1.695-4.572h1.126L23.771,7.11h-1.14L19.808,0.136z"/>
	</g>
	<polygon fill="#6D6E71" points="28.193,0.137 28.193,7.11 32.521,7.11 32.521,6.16 29.36,6.16 29.36,3.922 32.127,3.922 
		32.127,2.999 29.36,2.999 29.36,1.086 32.453,1.086 32.453,0.137 	"/>
	<g>
		<path fill="#6D6E71" d="M36.863,3.203c0.978,0,1.397-0.366,1.397-1.086c0-0.733-0.461-1.071-1.465-1.071h-0.922v2.157H36.863z
			 M34.705,0.136h2.185c1.628,0,2.564,0.664,2.564,1.927c0,1.194-0.868,1.723-1.913,1.831v0.028c0.149,0.108,0.406,0.366,0.827,0.95
			l1.655,2.238h-1.343l-1.412-1.994c-0.691-0.963-0.854-1.045-1.275-1.045h-0.121V7.11h-1.167V0.136z"/>
		<path fill="#6D6E71" d="M41.205,6.54l0.514-0.827c0.191,0.135,0.707,0.569,1.629,0.569c0.827,0,1.37-0.365,1.37-0.976
			c0-0.732-0.665-0.937-1.682-1.411C42.14,3.487,41.38,2.985,41.38,1.887C41.38,0.665,42.425,0,43.633,0
			c1.14,0,1.723,0.366,2.022,0.57l-0.502,0.828c-0.258-0.177-0.788-0.448-1.479-0.448c-0.666,0-1.154,0.285-1.154,0.881
			c0,0.665,0.583,0.869,1.343,1.208c0.978,0.435,1.981,0.937,1.981,2.212c0,1.221-0.977,1.981-2.483,1.981
			C42.194,7.232,41.488,6.798,41.205,6.54"/>
	</g>
	<rect x="47.947" y="0.137" fill="#6D6E71" width="1.167" height="6.974"/>
	<polygon fill="#6D6E71" points="50.891,0.137 50.891,1.1 53.021,1.1 53.021,7.11 54.202,7.11 54.202,1.1 56.332,1.1 56.332,0.137 	
		"/>
	<polygon fill="#6D6E71" points="62.275,0.137 60.51,3.446 60.483,3.446 58.692,0.137 57.417,0.137 59.873,4.464 59.873,7.11 
		61.04,7.11 61.04,4.464 63.415,0.137 	"/>
	<g>
		<path fill="#6D6E71" d="M74.159,3.637c0-1.438-0.8-2.687-2.415-2.687c-1.614,0-2.456,1.234-2.456,2.646
			c0,1.438,0.814,2.673,2.43,2.673C73.332,6.269,74.159,5.062,74.159,3.637 M68.04,3.637C68.04,1.724,69.384,0,71.718,0
			c2.333,0,3.676,1.682,3.676,3.595c0,1.914-1.316,3.637-3.649,3.637C69.41,7.232,68.04,5.549,68.04,3.637"/>
	</g>
	<polygon fill="#6D6E71" points="77.456,0.137 77.456,7.11 78.622,7.11 78.622,4.003 81.296,4.003 81.296,3.066 78.622,3.066 
		78.622,1.086 81.649,1.086 81.649,0.137 	"/>
	<g>
		<path fill="#6D6E71" d="M86.601,3.609c0-1.939,1.33-3.609,3.69-3.609c0.936,0,1.561,0.204,2.103,0.557l-0.556,0.868
			c-0.407-0.271-0.896-0.447-1.575-0.447c-1.586,0-2.413,1.099-2.413,2.591c0,1.533,0.786,2.687,2.441,2.687
			c0.786,0,1.315-0.259,1.723-0.557l0.488,0.828c-0.38,0.326-1.194,0.706-2.253,0.706C87.875,7.232,86.601,5.549,86.601,3.609"/>
		<path fill="#6D6E71" d="M98.201,4.641l-0.828-2.13c-0.23-0.61-0.435-1.262-0.435-1.262h-0.026c0,0-0.218,0.679-0.435,1.262
			l-0.814,2.13H98.201z M96.396,0.136h1.14l2.837,6.974h-1.223l-0.596-1.52h-3.243l-0.569,1.52h-1.154L96.396,0.136z"/>
	</g>
	<polygon fill="#6D6E71" points="102.081,0.137 102.081,7.11 106.219,7.11 106.219,6.16 103.274,6.16 103.274,0.137 	"/>
	<rect x="108.214" y="0.137" fill="#6D6E71" width="1.166" height="6.974"/>
	<polygon fill="#6D6E71" points="111.972,0.137 111.972,7.11 113.139,7.11 113.139,4.003 115.811,4.003 115.811,3.066 
		113.139,3.066 113.139,1.086 116.164,1.086 116.164,0.137 	"/>
	<g>
		<path fill="#6D6E71" d="M123.789,3.637c0-1.438-0.802-2.687-2.415-2.687c-1.615,0-2.456,1.234-2.456,2.646
			c0,1.438,0.813,2.673,2.429,2.673C122.96,6.269,123.789,5.062,123.789,3.637 M117.669,3.637c0-1.913,1.344-3.636,3.678-3.636
			c2.333,0,3.677,1.682,3.677,3.595c0,1.914-1.317,3.637-3.649,3.637C119.04,7.232,117.669,5.549,117.669,3.637"/>
		<path fill="#6D6E71" d="M129.243,3.203c0.976,0,1.397-0.366,1.397-1.086c0-0.733-0.462-1.071-1.466-1.071h-0.922v2.157H129.243z
			 M127.085,0.136h2.186c1.627,0,2.564,0.664,2.564,1.927c0,1.194-0.87,1.723-1.914,1.831v0.028c0.149,0.108,0.407,0.366,0.828,0.95
			l1.654,2.238h-1.342l-1.412-1.994c-0.691-0.963-0.854-1.045-1.275-1.045h-0.121V7.11h-1.168V0.136z"/>
		<path fill="#6D6E71" d="M134.113,0.136h1.18l3.08,4.219c0.394,0.557,0.705,1.153,0.72,1.153h0.026c0,0-0.054-0.542-0.054-1.072
			V0.136h1.058V7.11h-1.058l-3.271-4.478c-0.325-0.475-0.624-1.031-0.624-1.031h-0.014c0,0,0.041,0.461,0.041,0.896V7.11h-1.085
			V0.136z"/>
	</g>
	<rect x="142.702" y="0.137" fill="#6D6E71" width="1.166" height="6.974"/>
	<g>
		<path fill="#6D6E71" d="M150.272,4.641l-0.827-2.13c-0.232-0.61-0.435-1.262-0.435-1.262h-0.027c0,0-0.217,0.679-0.435,1.262
			l-0.813,2.13H150.272z M148.468,0.136h1.14l2.836,6.974h-1.222l-0.597-1.52h-3.243l-0.569,1.52h-1.153L148.468,0.136z"/>
		<path fill="#516935" d="M150.655,35.085h1.627V16.638h-1.627V35.085z M141.896,22.736c3.126,0,4.676,2.841,4.676,5.684
			c0,2.842-1.55,5.684-4.676,5.684s-4.676-2.842-4.676-5.684C137.221,25.577,138.771,22.736,141.896,22.736 M141.896,21.366
			c-4.082,0-6.305,3.229-6.305,7.054c0,3.823,2.223,7.052,6.305,7.052s6.304-3.229,6.304-7.052
			C148.2,24.596,145.979,21.366,141.896,21.366 M127.532,22.736c3.125,0,4.675,2.841,4.675,5.684c0,2.842-1.55,5.684-4.675,5.684
			c-3.127,0-4.677-2.842-4.677-5.684C122.855,25.577,124.405,22.736,127.532,22.736 M127.532,21.366
			c-4.083,0-6.304,3.229-6.304,7.054c0,3.823,2.221,7.052,6.304,7.052c4.082,0,6.303-3.229,6.303-7.052
			C133.835,24.596,131.614,21.366,127.532,21.366 M108.723,18.137h6.434v16.948h1.756V18.137h6.435v-1.499h-14.624V18.137z"/>
		<path fill="#4C4C4E" d="M97.46,19.984h3.149c1.888,0,3.566,0.413,3.566,2.764c0,2.352-1.679,2.765-3.566,2.765H97.46V19.984z
			 M93.402,35.279h4.058v-6.614h4.262c4.599,0,6.381-2.92,6.381-5.917c0-2.997-1.782-5.916-6.381-5.916h-8.319V35.279z
			 M69.969,35.279h3.798V22.335h0.052l4.522,12.944h3.127l4.52-13.074h0.052v13.074h3.798V16.832h-5.709l-4.082,12.686h-0.052
			L75.68,16.832h-5.71V35.279z M54.881,20.242h2.894c4.03,0,5.322,2.377,5.322,6.097c0,4.083-2.248,5.529-4.599,5.529h-3.617V20.242
			z M50.825,35.279h7.957c5.632,0,8.371-3.979,8.371-9.327c0-6.124-3.591-9.12-8.371-9.12h-7.957V35.279z"/>
		<path fill="#516935" d="M0.817,27.621l0.714-0.255l23.494,9.613l16.934-7.656l0.584,0.202c0.484,0.167,0.802,0.499,0.833,0.87
			c0.031,0.372-0.229,0.727-0.683,0.931l-16.757,7.75c-0.258,0.121-0.558,0.182-0.857,0.182c-0.27,0-0.539-0.049-0.78-0.148
			l-23.561-9.67C0.267,29.245-0.016,28.892,0,28.515S0.329,27.796,0.817,27.621"/>
		<path fill="#86A640" d="M0.817,23.45l0.848-0.303c1.936,0.845,23.371,9.332,23.371,9.332s15.95-7.063,16.703-7.404l0.805,0.278
			c0.486,0.168,0.805,0.502,0.833,0.875c0.029,0.374-0.235,0.729-0.694,0.932l-16.781,7.414c-0.25,0.111-0.536,0.166-0.822,0.166
			c-0.262,0-0.524-0.046-0.759-0.139L0.76,25.276c-0.48-0.19-0.771-0.545-0.759-0.925C0.013,23.971,0.326,23.626,0.817,23.45"/>
		<path fill="#B7CB85" d="M18.65,15.065L4.529,20.106c1.973,0.859,5.105,2.178,8.58,3.462c0.765,0.282,1.562,0.42,2.438,0.42
			c4.2,0,8.354-3.17,8.395-3.201c0.288-0.223,0.702-0.355,1.138-0.355h0.004c0.437,0,0.852,0.135,1.139,0.36
			c1.126,0.883,4.661,3.179,7.455,3.179c0.559,0,1.047-0.094,1.493-0.29c1.597-0.702,2.8-1.238,3.685-1.638L18.65,15.065z
			 M42.738,22.766c-0.058,0.028-1.471,0.713-5.929,2.671c-0.912,0.4-1.928,0.633-3.035,0.644c0,0-18.046,0.003-18.227,0.003
			c-1.373,0-2.678-0.23-3.88-0.676c-5.968-2.206-10.797-4.442-11-4.536c-0.443-0.206-0.696-0.56-0.666-0.926
			c0.03-0.367,0.34-0.694,0.815-0.864l17.12-6.111c0.433-0.155,0.948-0.157,1.384-0.006l23.222,8.021
			c0.476,0.165,0.792,0.488,0.831,0.853C43.416,22.202,43.173,22.555,42.738,22.766"/>
		<path fill="#6D6F71" d="M148.741,50.861h0.545V48.25c0.018-0.877,0.539-1.536,1.407-1.536c0.886,0,1.137,0.581,1.137,1.354v2.794
			h0.546V47.98c0-1.067-0.381-1.726-1.639-1.726c-0.635,0-1.233,0.364-1.434,0.901h-0.018v-0.771h-0.545V50.861z M143.959,47.755
			c0.018-0.729,0.521-1.041,1.198-1.041c0.642,0,1.172,0.182,1.172,0.92c0,0.495-0.252,0.556-0.703,0.607
			c-1.181,0.139-2.403,0.183-2.403,1.441c0,0.902,0.676,1.31,1.5,1.31c0.859,0,1.25-0.329,1.633-0.91h0.017
			c0,0.469,0.087,0.779,0.641,0.779c0.148,0,0.234-0.008,0.356-0.034v-0.459c-0.043,0.018-0.113,0.035-0.174,0.035
			c-0.217,0-0.321-0.122-0.321-0.33v-2.379c0-1.197-0.857-1.439-1.647-1.439c-1.024,0-1.762,0.45-1.813,1.5H143.959z
			 M146.329,49.127c0.009,0.877-0.729,1.406-1.563,1.406c-0.512,0-0.998-0.338-0.998-0.886c0-0.877,1.154-0.868,2.084-1.033
			c0.147-0.025,0.391-0.069,0.46-0.199h0.018V49.127z M141.087,50.861h0.546v-6.194h-0.546V50.861z M135.524,45.169h2.031
			c0.815,0,1.38,0.417,1.38,1.268c0,0.852-0.564,1.268-1.38,1.268h-2.031V45.169z M134.936,50.861h0.589v-2.654h2.161
			c1.11,0,1.839-0.65,1.839-1.771s-0.729-1.77-1.839-1.77h-2.75V50.861z M129.154,45.04h-0.546v1.346h-0.78v0.459h0.78v3.063
			c-0.009,0.763,0.243,1.006,0.972,1.006c0.164,0,0.32-0.018,0.485-0.018v-0.468c-0.156,0.018-0.312,0.026-0.469,0.026
			c-0.391-0.026-0.442-0.234-0.442-0.59v-3.021h0.911v-0.459h-0.911V45.04z M122.838,50.861h0.546V48.25
			c0.018-0.877,0.538-1.536,1.406-1.536c0.886,0,1.138,0.581,1.138,1.354v2.794h0.546V47.98c0-1.067-0.382-1.726-1.64-1.726
			c-0.634,0-1.233,0.364-1.433,0.901h-0.018v-0.771h-0.546V50.861z M117.882,48.312c0.087-0.816,0.582-1.598,1.477-1.598
			c0.885,0,1.396,0.773,1.423,1.598H117.882z M121.327,48.771c0.043-1.258-0.528-2.516-1.969-2.516
			c-1.425,0-2.022,1.188-2.022,2.368c0,1.276,0.598,2.369,2.022,2.369c1.128,0,1.718-0.589,1.952-1.604h-0.547
			c-0.173,0.677-0.607,1.146-1.405,1.146c-1.051,0-1.468-0.964-1.477-1.763H121.327z M109.553,50.861h0.545v-2.499
			c0.009-0.938,0.391-1.648,1.337-1.648c0.694,0,0.947,0.503,0.938,1.11v3.037h0.545v-2.533c0-0.833,0.27-1.614,1.216-1.614
			c0.781,0,1.06,0.399,1.06,1.137v3.011h0.546v-3.037c0-1.059-0.503-1.569-1.484-1.569c-0.59,0-1.154,0.285-1.423,0.876
			c-0.165-0.591-0.694-0.876-1.284-0.876c-0.712,0-1.181,0.347-1.467,0.884h-0.026v-0.753h-0.502V50.861z M104.587,48.312
			c0.088-0.816,0.583-1.598,1.477-1.598c0.885,0,1.397,0.773,1.424,1.598H104.587z M108.032,48.771
			c0.044-1.258-0.527-2.516-1.969-2.516c-1.424,0-2.021,1.188-2.021,2.368c0,1.276,0.598,2.369,2.021,2.369
			c1.129,0,1.719-0.589,1.952-1.604h-0.546c-0.174,0.677-0.607,1.146-1.406,1.146c-1.05,0-1.468-0.964-1.477-1.763H108.032z
			 M102.444,46.386h-0.546v0.771h-0.018c-0.217-0.495-0.772-0.902-1.423-0.902c-1.294,0-2.022,1.023-2.022,2.256
			c0,1.275,0.589,2.3,2.022,2.3c0.642,0,1.172-0.373,1.423-0.92h0.018v0.607c0,1.094-0.434,1.692-1.44,1.692
			c-0.608,0-1.189-0.234-1.312-0.894h-0.546c0.078,0.954,0.963,1.353,1.857,1.353c1.467,0,1.978-0.814,1.986-2.151V46.386z
			 M100.458,50.352c-1.008,0-1.476-0.877-1.476-1.78c0-0.929,0.434-1.857,1.476-1.857c1.033,0,1.44,0.98,1.44,1.857
			C101.898,49.483,101.403,50.352,100.458,50.352 M93.87,47.755c0.018-0.729,0.521-1.041,1.198-1.041
			c0.643,0,1.172,0.182,1.172,0.92c0,0.495-0.251,0.556-0.703,0.607c-1.181,0.139-2.403,0.183-2.403,1.441
			c0,0.902,0.676,1.31,1.501,1.31c0.859,0,1.25-0.329,1.632-0.91h0.018c0,0.469,0.086,0.779,0.641,0.779
			c0.148,0,0.234-0.008,0.356-0.034v-0.459c-0.044,0.018-0.113,0.035-0.174,0.035c-0.217,0-0.321-0.122-0.321-0.33v-2.379
			c0-1.197-0.858-1.439-1.648-1.439c-1.023,0-1.761,0.45-1.812,1.5H93.87z M96.24,49.127c0.009,0.877-0.729,1.406-1.562,1.406
			c-0.513,0-0.998-0.338-0.998-0.886c0-0.877,1.154-0.868,2.084-1.033c0.147-0.025,0.39-0.069,0.46-0.199h0.017V49.127z
			 M87.928,50.861h0.545V48.25c0.018-0.877,0.538-1.536,1.407-1.536c0.885,0,1.137,0.581,1.137,1.354v2.794h0.545V47.98
			c0-1.067-0.381-1.726-1.639-1.726c-0.634,0-1.232,0.364-1.433,0.901h-0.018v-0.771h-0.545V50.861z M83.145,47.755
			c0.018-0.729,0.521-1.041,1.198-1.041c0.643,0,1.172,0.182,1.172,0.92c0,0.495-0.252,0.556-0.703,0.607
			c-1.181,0.139-2.403,0.183-2.403,1.441c0,0.902,0.676,1.31,1.5,1.31c0.859,0,1.251-0.329,1.633-0.91h0.018
			c0,0.469,0.086,0.779,0.641,0.779c0.147,0,0.234-0.008,0.355-0.034v-0.459c-0.043,0.018-0.112,0.035-0.174,0.035
			c-0.216,0-0.32-0.122-0.32-0.33v-2.379c0-1.197-0.858-1.439-1.648-1.439c-1.024,0-1.761,0.45-1.812,1.5H83.145z M85.515,49.127
			c0.009,0.877-0.729,1.406-1.562,1.406c-0.513,0-0.998-0.338-0.998-0.886c0-0.877,1.154-0.868,2.084-1.033
			c0.147-0.025,0.39-0.069,0.46-0.199h0.017V49.127z M74.729,50.861h0.589v-5.354h0.018l2.126,5.354h0.556l2.118-5.354h0.018v5.354
			h0.589v-6.194h-0.867l-2.135,5.432l-2.144-5.432h-0.867V50.861z M66.657,47.755c0.017-0.729,0.521-1.041,1.198-1.041
			c0.643,0,1.173,0.182,1.173,0.92c0,0.495-0.252,0.556-0.704,0.607c-1.18,0.139-2.403,0.183-2.403,1.441
			c0,0.902,0.676,1.31,1.5,1.31c0.86,0,1.25-0.329,1.632-0.91h0.018c0,0.469,0.086,0.779,0.641,0.779
			c0.147,0,0.234-0.008,0.355-0.034v-0.459c-0.043,0.018-0.113,0.035-0.173,0.035c-0.217,0-0.321-0.122-0.321-0.33v-2.379
			c0-1.197-0.858-1.439-1.648-1.439c-1.024,0-1.762,0.45-1.813,1.5H66.657z M69.027,49.127c0.009,0.877-0.729,1.406-1.563,1.406
			c-0.512,0-0.999-0.338-0.999-0.886c0-0.877,1.155-0.868,2.084-1.033c0.147-0.025,0.39-0.069,0.46-0.199h0.018V49.127z
			 M63.68,45.04h-0.545v1.346h-0.781v0.459h0.781v3.063c-0.009,0.763,0.243,1.006,0.971,1.006c0.165,0,0.321-0.018,0.486-0.018
			v-0.468c-0.156,0.018-0.312,0.026-0.469,0.026c-0.391-0.026-0.443-0.234-0.443-0.59v-3.021h0.912v-0.459H63.68V45.04z
			 M58.022,47.755c0.018-0.729,0.521-1.041,1.198-1.041c0.643,0,1.172,0.182,1.172,0.92c0,0.495-0.251,0.556-0.703,0.607
			c-1.181,0.139-2.404,0.183-2.404,1.441c0,0.902,0.676,1.31,1.501,1.31c0.859,0,1.25-0.329,1.632-0.91h0.018
			c0,0.469,0.086,0.779,0.641,0.779c0.147,0,0.234-0.008,0.356-0.034v-0.459c-0.044,0.018-0.113,0.035-0.174,0.035
			c-0.217,0-0.321-0.122-0.321-0.33v-2.379c0-1.197-0.858-1.439-1.648-1.439c-1.025,0-1.761,0.45-1.813,1.5H58.022z M60.393,49.127
			c0.009,0.877-0.729,1.406-1.562,1.406c-0.513,0-0.999-0.338-0.999-0.886c0-0.877,1.155-0.868,2.083-1.033
			c0.148-0.025,0.391-0.069,0.46-0.199h0.018V49.127z M50.908,50.861h2.143c1.866-0.042,2.846-1.066,2.846-3.097
			c0-2.031-0.98-3.055-2.846-3.098h-2.143V50.861z M51.497,45.169h1.259c1.779-0.009,2.552,0.747,2.552,2.596
			s-0.773,2.604-2.552,2.595h-1.259V45.169z M44.096,50.861h0.545v-2.386c0-0.929,0.677-1.657,1.666-1.605v-0.546
			c-0.807-0.035-1.414,0.39-1.692,1.109h-0.017v-1.048h-0.502V50.861z M42.281,46.386h-0.545v2.351c0,0.912-0.408,1.797-1.345,1.797
			c-0.869,0-1.173-0.426-1.198-1.232v-2.915h-0.546v2.906c0,1.042,0.442,1.7,1.57,1.7c0.668,0,1.258-0.338,1.545-0.937h0.018v0.806
			h0.502V46.386z M34.94,46.714c1.05,0,1.571,0.955,1.571,1.909c0,0.955-0.521,1.91-1.571,1.91c-1.051,0-1.572-0.955-1.572-1.91
			C33.369,47.669,33.89,46.714,34.94,46.714 M34.94,46.255c-1.372,0-2.117,1.084-2.117,2.368c0,1.285,0.745,2.369,2.117,2.369
			c1.371,0,2.116-1.084,2.116-2.369C37.057,47.339,36.312,46.255,34.94,46.255 M29.595,50.861h0.589v-2.55l2.447-3.645h-0.703
			l-2.03,3.141l-2.039-3.141h-0.703l2.438,3.645V50.861z M22.748,44.667h-0.546v2.567h-0.017c-0.234-0.642-0.886-0.979-1.554-0.979
			c-1.363,0-2.013,1.102-2.013,2.368c0,1.268,0.649,2.369,2.013,2.369c0.65,0,1.363-0.398,1.597-0.979h0.018v0.849h0.502V44.667z
			 M19.163,48.623c0-0.929,0.425-1.909,1.467-1.909c1.163,0,1.571,0.98,1.571,1.909c0,0.93-0.408,1.91-1.571,1.91
			C19.588,50.533,19.163,49.553,19.163,48.623 M16.431,50.861h0.545v-6.194h-0.545V50.861z M14.044,45.542h0.545v-0.875h-0.545
			V45.542z M14.044,50.861h0.545v-4.477h-0.545V50.861z M12.221,46.386h-0.545v2.351c0,0.912-0.409,1.797-1.346,1.797
			c-0.868,0-1.172-0.426-1.198-1.232v-2.915H8.586v2.906c0,1.042,0.442,1.7,1.57,1.7c0.668,0,1.259-0.338,1.545-0.937h0.017v0.806
			h0.503V46.386z M2.719,45.169H4.75c0.92,0,1.397,0.391,1.397,1.163c0,0.582-0.451,1.051-1.397,1.051H2.719V45.169z M2.13,50.861
			h2.62c2.013,0,2.221-1.17,2.221-1.761c0-0.808-0.511-1.406-1.31-1.51v-0.018c0.642-0.138,1.075-0.737,1.075-1.389
			c0-1.154-0.945-1.518-1.987-1.518H2.13V50.861z M2.719,47.886H4.75c1.033,0,1.632,0.407,1.632,1.197
			c0,0.99-0.755,1.285-1.632,1.276H2.719V47.886z"/>
	</g>
</g>
</svg>
