<?xml version="1.0" encoding="utf-8"?>
<!-- Generator: Adobe Illustrator 16.0.0, SVG Export Plug-In . SVG Version: 6.00 Build 0)  -->
<svg version="1.2" baseProfile="tiny" id="Layer_1" xmlns="http://www.w3.org/2000/svg" xmlns:xlink="http://www.w3.org/1999/xlink"
	 x="0px" y="0px" width="152.443px" height="26.405px" viewBox="0 0 152.443 26.405" xml:space="preserve">
<g>
	<g>
		<path fill="#516935" d="M150.655,22.232h1.627V3.786h-1.627V22.232z M141.896,9.883c3.126,0,4.676,2.841,4.676,5.684
			c0,2.842-1.55,5.684-4.676,5.684s-4.676-2.842-4.676-5.684C137.221,12.725,138.771,9.883,141.896,9.883 M141.896,8.514
			c-4.082,0-6.305,3.229-6.305,7.054c0,3.823,2.223,7.052,6.305,7.052s6.304-3.229,6.304-7.052
			C148.2,11.743,145.979,8.514,141.896,8.514 M127.532,9.883c3.125,0,4.675,2.841,4.675,5.684c0,2.842-1.55,5.684-4.675,5.684
			c-3.127,0-4.677-2.842-4.677-5.684C122.855,12.725,124.405,9.883,127.532,9.883 M127.532,8.514c-4.083,0-6.304,3.229-6.304,7.054
			c0,3.823,2.221,7.052,6.304,7.052c4.082,0,6.303-3.229,6.303-7.052C133.835,11.743,131.614,8.514,127.532,8.514 M108.723,5.284
			h6.434v16.948h1.756V5.284h6.435V3.786h-14.624V5.284z"/>
		<path fill="#4C4C4E" d="M97.46,7.132h3.149c1.888,0,3.566,0.413,3.566,2.764c0,2.352-1.679,2.765-3.566,2.765H97.46V7.132z
			 M93.402,22.427h4.058v-6.614h4.262c4.599,0,6.381-2.92,6.381-5.917c0-2.997-1.782-5.916-6.381-5.916h-8.319V22.427z
			 M69.969,22.427h3.798V9.482h0.052l4.522,12.944h3.127l4.52-13.074h0.052v13.074h3.798V3.979h-5.709l-4.082,12.686h-0.052
			L75.68,3.979h-5.71V22.427z M54.881,7.389h2.894c4.03,0,5.322,2.377,5.322,6.097c0,4.083-2.248,5.529-4.599,5.529h-3.617V7.389z
			 M50.825,22.427h7.957c5.632,0,8.371-3.979,8.371-9.327c0-6.124-3.591-9.12-8.371-9.12h-7.957V22.427z"/>
		<path fill="#516935" d="M0.817,14.769l0.714-0.255l23.494,9.613l16.934-7.656l0.584,0.202c0.484,0.167,0.802,0.499,0.833,0.87
			c0.031,0.372-0.229,0.727-0.683,0.931l-16.757,7.75c-0.258,0.121-0.558,0.182-0.857,0.182c-0.27,0-0.539-0.049-0.78-0.148
			l-23.561-9.67C0.267,16.393-0.016,16.039,0,15.662S0.329,14.943,0.817,14.769"/>
		<path fill="#86A640" d="M0.817,10.598l0.848-0.303c1.936,0.845,23.371,9.332,23.371,9.332s15.95-7.063,16.703-7.404l0.805,0.278
			c0.486,0.168,0.805,0.502,0.833,0.875c0.029,0.374-0.235,0.729-0.694,0.932l-16.781,7.414c-0.25,0.111-0.536,0.166-0.822,0.166
			c-0.262,0-0.524-0.046-0.759-0.139L0.76,12.424c-0.48-0.19-0.771-0.545-0.759-0.925C0.013,11.119,0.326,10.773,0.817,10.598"/>
		<path fill="#B7CB85" d="M18.65,2.212L4.529,7.253c1.973,0.859,5.105,2.178,8.58,3.462c0.765,0.282,1.562,0.42,2.438,0.42
			c4.2,0,8.354-3.17,8.395-3.201C24.23,7.712,24.645,7.58,25.08,7.58h0.004c0.437,0,0.852,0.135,1.139,0.36
			c1.126,0.883,4.661,3.179,7.455,3.179c0.559,0,1.047-0.094,1.493-0.29c1.597-0.702,2.8-1.238,3.685-1.638L18.65,2.212z
			 M42.738,9.913c-0.058,0.028-1.471,0.713-5.929,2.671c-0.912,0.4-1.928,0.633-3.035,0.644c0,0-18.046,0.003-18.227,0.003
			c-1.373,0-2.678-0.23-3.88-0.676c-5.968-2.206-10.797-4.442-11-4.536c-0.443-0.206-0.696-0.56-0.666-0.926
			c0.03-0.367,0.34-0.694,0.815-0.864l17.12-6.111c0.433-0.155,0.948-0.157,1.384-0.006l23.222,8.021
			c0.476,0.165,0.792,0.488,0.831,0.853C43.416,9.35,43.173,9.702,42.738,9.913"/>
	</g>
</g>
</svg>
